# xmcd
# Track frame offsets:
# 150
# 14686
# 29570
# 43327
# 57115
# 75388
# 89176
# 103647
# 120619
# 137862
# 156471
# 170675
# 183916
# 199132
#
# Disc length: 2886 seconds
# Revision: 1
# Processed by: cddbd v1.5.2PL0 Copyright (c) Steve Scherf et al.
# Submitted via: VisiTrax 2.10.3.257 - For more info visit www.synapsa.com
#
DISCID=ca0b440e
DTITLE=Valdomiro Maicá - Missioneiro - Um Tesouro Guarani
DYEAR=1998
DGENRE=Música Gaúcha
TTITLE0=Caçada de Veado
TTITLE1=Centauro do Novo Milênio
TTITLE2=Tapera Assombrada
TTITLE3=Mágoas de Posteiro
TTITLE4=Ilusão Povoeira
TTITLE5=Quem Não Pode se Sacode
TTITLE6=Milonga para Don Jayme
TTITLE7=Balseiros do Rio Uruguai
TTITLE8=Fronteiros
TTITLE9=De Esvaziá Cadeira
TTITLE10=Invernada do Fundo
TTITLE11=Balsa da Saudade
TTITLE12=Missioneiro - Um Tesouro Guarani
TTITLE13=Razão de Ser Costeiro
EXTD=
EXTT0=
EXTT1=
EXTT2=
EXTT3=
EXTT4=
EXTT5=
EXTT6=
EXTT7=
EXTT8=
EXTT9=
EXTT10=
EXTT11=
EXTT12=
EXTT13=
PLAYORDER=
